<mxfile host="app.diagrams.net" modified="2022-01-20T08:21:03.600Z" agent="5.0 (Macintosh; Intel Mac OS X 10_15_7) AppleWebKit/537.36 (KHTML, like Gecko) Chrome/96.0.4664.110 Safari/537.36" etag="6sJYtHPOY870roDhhBXL" version="16.1.2" type="github" pages="3">
  <diagram id="zWAUOI7uXB58mfc3HVhZ" name="数据结构">
    <mxGraphModel dx="678" dy="338" grid="1" gridSize="10" guides="1" tooltips="1" connect="1" arrows="1" fold="1" page="1" pageScale="1" pageWidth="850" pageHeight="1100" math="0" shadow="0">
      <root>
        <mxCell id="59_2Vt7BAnoprPoY_IP--0" />
        <mxCell id="59_2Vt7BAnoprPoY_IP--1" parent="59_2Vt7BAnoprPoY_IP--0" />
        <mxCell id="59_2Vt7BAnoprPoY_IP--2" value="1234" style="rounded=0;whiteSpace=wrap;html=1;" parent="59_2Vt7BAnoprPoY_IP--1" vertex="1">
          <mxGeometry x="120" y="180" width="80" height="30" as="geometry" />
        </mxCell>
        <mxCell id="59_2Vt7BAnoprPoY_IP--3" value="1234" style="rounded=0;whiteSpace=wrap;html=1;" parent="59_2Vt7BAnoprPoY_IP--1" vertex="1">
          <mxGeometry x="240" y="180" width="160" height="30" as="geometry" />
        </mxCell>
        <mxCell id="59_2Vt7BAnoprPoY_IP--4" value="i&amp;nbsp; := int(1234)" style="text;html=1;strokeColor=none;fillColor=none;align=center;verticalAlign=middle;whiteSpace=wrap;rounded=0;" parent="59_2Vt7BAnoprPoY_IP--1" vertex="1">
          <mxGeometry x="120" y="150" width="80" height="30" as="geometry" />
        </mxCell>
        <mxCell id="59_2Vt7BAnoprPoY_IP--5" value="或" style="text;html=1;strokeColor=none;fillColor=none;align=center;verticalAlign=middle;whiteSpace=wrap;rounded=0;" parent="59_2Vt7BAnoprPoY_IP--1" vertex="1">
          <mxGeometry x="210" y="185" width="20" height="20" as="geometry" />
        </mxCell>
        <mxCell id="59_2Vt7BAnoprPoY_IP--19" value="j&amp;nbsp; := int32(1234)" style="text;html=1;strokeColor=none;fillColor=none;align=center;verticalAlign=middle;whiteSpace=wrap;rounded=0;" parent="59_2Vt7BAnoprPoY_IP--1" vertex="1">
          <mxGeometry x="110" y="280" width="110" height="30" as="geometry" />
        </mxCell>
        <mxCell id="59_2Vt7BAnoprPoY_IP--20" value="1234" style="rounded=0;whiteSpace=wrap;html=1;" parent="59_2Vt7BAnoprPoY_IP--1" vertex="1">
          <mxGeometry x="120" y="310" width="80" height="30" as="geometry" />
        </mxCell>
        <mxCell id="Qy6Y_hbi58cCMWtNMaR3-0" value="k&amp;nbsp; := float32(3.14)" style="text;html=1;strokeColor=none;fillColor=none;align=center;verticalAlign=middle;whiteSpace=wrap;rounded=0;" vertex="1" parent="59_2Vt7BAnoprPoY_IP--1">
          <mxGeometry x="110" y="370" width="110" height="30" as="geometry" />
        </mxCell>
        <mxCell id="Qy6Y_hbi58cCMWtNMaR3-1" value="" style="shape=crossbar;whiteSpace=wrap;html=1;rounded=1;" vertex="1" parent="59_2Vt7BAnoprPoY_IP--1">
          <mxGeometry x="240" y="220" width="160" height="20" as="geometry" />
        </mxCell>
        <mxCell id="Qy6Y_hbi58cCMWtNMaR3-2" value="8Byte" style="text;html=1;align=center;verticalAlign=middle;resizable=0;points=[];autosize=1;strokeColor=none;fillColor=none;" vertex="1" parent="59_2Vt7BAnoprPoY_IP--1">
          <mxGeometry x="295" y="230" width="50" height="20" as="geometry" />
        </mxCell>
        <mxCell id="Qy6Y_hbi58cCMWtNMaR3-5" value="" style="shape=crossbar;whiteSpace=wrap;html=1;rounded=1;" vertex="1" parent="59_2Vt7BAnoprPoY_IP--1">
          <mxGeometry x="120" y="220" width="80" height="20" as="geometry" />
        </mxCell>
        <mxCell id="Qy6Y_hbi58cCMWtNMaR3-6" value="4Byte" style="text;html=1;align=center;verticalAlign=middle;resizable=0;points=[];autosize=1;strokeColor=none;fillColor=none;" vertex="1" parent="59_2Vt7BAnoprPoY_IP--1">
          <mxGeometry x="135" y="230" width="50" height="20" as="geometry" />
        </mxCell>
        <mxCell id="Qy6Y_hbi58cCMWtNMaR3-7" value="3.14" style="rounded=0;whiteSpace=wrap;html=1;" vertex="1" parent="59_2Vt7BAnoprPoY_IP--1">
          <mxGeometry x="120" y="400" width="80" height="30" as="geometry" />
        </mxCell>
        <mxCell id="Qy6Y_hbi58cCMWtNMaR3-8" value="arr&amp;nbsp; := [4]int{1,2,3,4}" style="text;html=1;strokeColor=none;fillColor=none;align=center;verticalAlign=middle;whiteSpace=wrap;rounded=0;" vertex="1" parent="59_2Vt7BAnoprPoY_IP--1">
          <mxGeometry x="100" y="450" width="150" height="30" as="geometry" />
        </mxCell>
        <mxCell id="Qy6Y_hbi58cCMWtNMaR3-9" value="1" style="rounded=0;whiteSpace=wrap;html=1;" vertex="1" parent="59_2Vt7BAnoprPoY_IP--1">
          <mxGeometry x="120" y="490" width="80" height="30" as="geometry" />
        </mxCell>
        <mxCell id="Qy6Y_hbi58cCMWtNMaR3-10" value="2" style="rounded=0;whiteSpace=wrap;html=1;" vertex="1" parent="59_2Vt7BAnoprPoY_IP--1">
          <mxGeometry x="200" y="490" width="80" height="30" as="geometry" />
        </mxCell>
        <mxCell id="Qy6Y_hbi58cCMWtNMaR3-11" value="3" style="rounded=0;whiteSpace=wrap;html=1;" vertex="1" parent="59_2Vt7BAnoprPoY_IP--1">
          <mxGeometry x="280" y="490" width="80" height="30" as="geometry" />
        </mxCell>
        <mxCell id="Qy6Y_hbi58cCMWtNMaR3-12" value="4" style="rounded=0;whiteSpace=wrap;html=1;" vertex="1" parent="59_2Vt7BAnoprPoY_IP--1">
          <mxGeometry x="360" y="490" width="80" height="30" as="geometry" />
        </mxCell>
        <mxCell id="Qy6Y_hbi58cCMWtNMaR3-13" value="arr&amp;nbsp; := [4]byte{&#39;a&#39;, &#39;b&#39;, &#39;c&#39;, &#39;d&#39;}" style="text;html=1;strokeColor=none;fillColor=none;align=center;verticalAlign=middle;whiteSpace=wrap;rounded=0;" vertex="1" parent="59_2Vt7BAnoprPoY_IP--1">
          <mxGeometry x="120" y="540" width="150" height="30" as="geometry" />
        </mxCell>
        <mxCell id="Qy6Y_hbi58cCMWtNMaR3-14" value="a" style="rounded=0;whiteSpace=wrap;html=1;" vertex="1" parent="59_2Vt7BAnoprPoY_IP--1">
          <mxGeometry x="120" y="580" width="20" height="30" as="geometry" />
        </mxCell>
        <mxCell id="Qy6Y_hbi58cCMWtNMaR3-18" value="b" style="rounded=0;whiteSpace=wrap;html=1;" vertex="1" parent="59_2Vt7BAnoprPoY_IP--1">
          <mxGeometry x="140" y="580" width="20" height="30" as="geometry" />
        </mxCell>
        <mxCell id="Qy6Y_hbi58cCMWtNMaR3-19" value="c" style="rounded=0;whiteSpace=wrap;html=1;" vertex="1" parent="59_2Vt7BAnoprPoY_IP--1">
          <mxGeometry x="160" y="580" width="20" height="30" as="geometry" />
        </mxCell>
        <mxCell id="Qy6Y_hbi58cCMWtNMaR3-20" value="d" style="rounded=0;whiteSpace=wrap;html=1;" vertex="1" parent="59_2Vt7BAnoprPoY_IP--1">
          <mxGeometry x="180" y="580" width="20" height="30" as="geometry" />
        </mxCell>
      </root>
    </mxGraphModel>
  </diagram>
  <diagram id="Fawr2cNaJOEuSB37mbMz" name="流程图">
    <mxGraphModel dx="1186" dy="591" grid="1" gridSize="10" guides="1" tooltips="1" connect="1" arrows="1" fold="1" page="1" pageScale="1" pageWidth="850" pageHeight="1100" math="0" shadow="0">
      <root>
        <mxCell id="0" />
        <mxCell id="1" parent="0" />
        <mxCell id="Iu3-bTu1Jm2DTlRQBmP7-30" value="" style="rounded=0;whiteSpace=wrap;html=1;" parent="1" vertex="1">
          <mxGeometry x="1713" y="6" width="280" height="1090" as="geometry" />
        </mxCell>
        <mxCell id="Iu3-bTu1Jm2DTlRQBmP7-26" value="" style="rounded=0;whiteSpace=wrap;html=1;" parent="1" vertex="1">
          <mxGeometry x="2543" y="700" width="340" height="640" as="geometry" />
        </mxCell>
        <mxCell id="Iu3-bTu1Jm2DTlRQBmP7-9" value="" style="rounded=0;whiteSpace=wrap;html=1;" parent="1" vertex="1">
          <mxGeometry x="2198" y="1083" width="240" height="260" as="geometry" />
        </mxCell>
        <mxCell id="Iu3-bTu1Jm2DTlRQBmP7-1" value="" style="rounded=0;whiteSpace=wrap;html=1;" parent="1" vertex="1">
          <mxGeometry x="2198" y="700" width="240" height="370" as="geometry" />
        </mxCell>
        <mxCell id="Y8Ub-Ih9Y8MGtYWeDZMH-34" value="" style="rounded=0;whiteSpace=wrap;html=1;" parent="1" vertex="1">
          <mxGeometry x="2198" y="7" width="240" height="679" as="geometry" />
        </mxCell>
        <mxCell id="IIpFHa_1jI1vyUHgiyEp-1" value="" style="ellipse;html=1;shape=startState;fillColor=#000000;strokeColor=#ff0000;" parent="1" vertex="1">
          <mxGeometry x="240" y="100" width="30" height="30" as="geometry" />
        </mxCell>
        <mxCell id="IIpFHa_1jI1vyUHgiyEp-2" value="" style="edgeStyle=orthogonalEdgeStyle;html=1;verticalAlign=bottom;endArrow=open;endSize=8;strokeColor=#ff0000;rounded=0;" parent="1" source="IIpFHa_1jI1vyUHgiyEp-1" edge="1">
          <mxGeometry relative="1" as="geometry">
            <mxPoint x="255" y="190" as="targetPoint" />
          </mxGeometry>
        </mxCell>
        <mxCell id="IIpFHa_1jI1vyUHgiyEp-3" value="hchan上锁&lt;br&gt;防止并发" style="rounded=1;whiteSpace=wrap;html=1;arcSize=40;fontColor=#000000;fillColor=#ffffc0;strokeColor=#ff0000;" parent="1" vertex="1">
          <mxGeometry x="195" y="320" width="120" height="40" as="geometry" />
        </mxCell>
        <mxCell id="IIpFHa_1jI1vyUHgiyEp-4" value="" style="edgeStyle=orthogonalEdgeStyle;html=1;verticalAlign=bottom;endArrow=open;endSize=8;strokeColor=#ff0000;rounded=0;" parent="1" source="IIpFHa_1jI1vyUHgiyEp-3" edge="1">
          <mxGeometry relative="1" as="geometry">
            <mxPoint x="255" y="420" as="targetPoint" />
          </mxGeometry>
        </mxCell>
        <mxCell id="IIpFHa_1jI1vyUHgiyEp-5" value="hchan == nil?" style="rhombus;whiteSpace=wrap;html=1;fillColor=#ffffc0;strokeColor=#ff0000;" parent="1" vertex="1">
          <mxGeometry x="215" y="190" width="80" height="40" as="geometry" />
        </mxCell>
        <mxCell id="IIpFHa_1jI1vyUHgiyEp-6" value="yes" style="edgeStyle=orthogonalEdgeStyle;html=1;align=left;verticalAlign=bottom;endArrow=open;endSize=8;strokeColor=#ff0000;rounded=0;" parent="1" source="IIpFHa_1jI1vyUHgiyEp-5" edge="1">
          <mxGeometry x="-1" relative="1" as="geometry">
            <mxPoint x="395" y="210" as="targetPoint" />
          </mxGeometry>
        </mxCell>
        <mxCell id="IIpFHa_1jI1vyUHgiyEp-7" value="no" style="edgeStyle=orthogonalEdgeStyle;html=1;align=left;verticalAlign=top;endArrow=open;endSize=8;strokeColor=#ff0000;rounded=0;" parent="1" source="IIpFHa_1jI1vyUHgiyEp-5" edge="1">
          <mxGeometry x="-1" relative="1" as="geometry">
            <mxPoint x="255" y="290" as="targetPoint" />
          </mxGeometry>
        </mxCell>
        <mxCell id="IIpFHa_1jI1vyUHgiyEp-8" value="gopark&lt;br&gt;协程永久阻塞" style="rounded=1;whiteSpace=wrap;html=1;arcSize=40;fontColor=#000000;fillColor=#ffffc0;strokeColor=#ff0000;" parent="1" vertex="1">
          <mxGeometry x="390" y="190" width="120" height="40" as="geometry" />
        </mxCell>
        <mxCell id="IIpFHa_1jI1vyUHgiyEp-9" value="把当前协程打包成sudog结构体" style="rounded=1;whiteSpace=wrap;html=1;arcSize=40;fontColor=#000000;fillColor=#ffffc0;strokeColor=#ff0000;" parent="1" vertex="1">
          <mxGeometry x="195" y="840" width="120" height="40" as="geometry" />
        </mxCell>
        <mxCell id="IIpFHa_1jI1vyUHgiyEp-10" value="" style="edgeStyle=orthogonalEdgeStyle;html=1;verticalAlign=bottom;endArrow=open;endSize=8;strokeColor=#ff0000;rounded=0;" parent="1" source="IIpFHa_1jI1vyUHgiyEp-9" edge="1">
          <mxGeometry relative="1" as="geometry">
            <mxPoint x="255" y="940" as="targetPoint" />
          </mxGeometry>
        </mxCell>
        <mxCell id="IIpFHa_1jI1vyUHgiyEp-11" value="通道是否&lt;br&gt;关闭？" style="rhombus;whiteSpace=wrap;html=1;fillColor=#ffffc0;strokeColor=#ff0000;" parent="1" vertex="1">
          <mxGeometry x="215" y="420" width="80" height="40" as="geometry" />
        </mxCell>
        <mxCell id="IIpFHa_1jI1vyUHgiyEp-12" value="yes" style="edgeStyle=orthogonalEdgeStyle;html=1;align=left;verticalAlign=bottom;endArrow=open;endSize=8;strokeColor=#ff0000;rounded=0;" parent="1" source="IIpFHa_1jI1vyUHgiyEp-11" edge="1">
          <mxGeometry x="-1" relative="1" as="geometry">
            <mxPoint x="395" y="440" as="targetPoint" />
          </mxGeometry>
        </mxCell>
        <mxCell id="IIpFHa_1jI1vyUHgiyEp-13" value="no" style="edgeStyle=orthogonalEdgeStyle;html=1;align=left;verticalAlign=top;endArrow=open;endSize=8;strokeColor=#ff0000;rounded=0;" parent="1" source="IIpFHa_1jI1vyUHgiyEp-11" edge="1">
          <mxGeometry x="-1" relative="1" as="geometry">
            <mxPoint x="255" y="520" as="targetPoint" />
          </mxGeometry>
        </mxCell>
        <mxCell id="IIpFHa_1jI1vyUHgiyEp-16" style="edgeStyle=orthogonalEdgeStyle;rounded=0;orthogonalLoop=1;jettySize=auto;html=1;" parent="1" source="IIpFHa_1jI1vyUHgiyEp-14" target="IIpFHa_1jI1vyUHgiyEp-15" edge="1">
          <mxGeometry relative="1" as="geometry" />
        </mxCell>
        <mxCell id="IIpFHa_1jI1vyUHgiyEp-14" value="panic" style="rounded=1;whiteSpace=wrap;html=1;arcSize=40;fontColor=#000000;fillColor=#ffffc0;strokeColor=#ff0000;" parent="1" vertex="1">
          <mxGeometry x="395" y="420" width="120" height="40" as="geometry" />
        </mxCell>
        <mxCell id="IIpFHa_1jI1vyUHgiyEp-15" value="" style="ellipse;html=1;shape=endState;fillColor=#000000;strokeColor=#ff0000;" parent="1" vertex="1">
          <mxGeometry x="590" y="425" width="30" height="30" as="geometry" />
        </mxCell>
        <mxCell id="IIpFHa_1jI1vyUHgiyEp-17" value="检查接收列队是否&lt;br&gt;有接收者？" style="rhombus;whiteSpace=wrap;html=1;fillColor=#ffffc0;strokeColor=#ff0000;" parent="1" vertex="1">
          <mxGeometry x="180" y="520" width="150" height="80" as="geometry" />
        </mxCell>
        <mxCell id="IIpFHa_1jI1vyUHgiyEp-18" value="yes" style="edgeStyle=orthogonalEdgeStyle;html=1;align=left;verticalAlign=bottom;endArrow=open;endSize=8;strokeColor=#ff0000;rounded=0;" parent="1" source="IIpFHa_1jI1vyUHgiyEp-17" edge="1">
          <mxGeometry x="-1" relative="1" as="geometry">
            <mxPoint x="460" y="560" as="targetPoint" />
            <Array as="points">
              <mxPoint x="430" y="560" />
            </Array>
          </mxGeometry>
        </mxCell>
        <mxCell id="IIpFHa_1jI1vyUHgiyEp-19" value="no" style="edgeStyle=orthogonalEdgeStyle;html=1;align=left;verticalAlign=top;endArrow=open;endSize=8;strokeColor=#ff0000;rounded=0;" parent="1" source="IIpFHa_1jI1vyUHgiyEp-17" edge="1">
          <mxGeometry x="-1" relative="1" as="geometry">
            <mxPoint x="255" y="680" as="targetPoint" />
          </mxGeometry>
        </mxCell>
        <mxCell id="IIpFHa_1jI1vyUHgiyEp-20" value="检查环形列队是否&lt;br&gt;还有空间？" style="rhombus;whiteSpace=wrap;html=1;fillColor=#ffffc0;strokeColor=#ff0000;" parent="1" vertex="1">
          <mxGeometry x="180" y="680" width="150" height="80" as="geometry" />
        </mxCell>
        <mxCell id="IIpFHa_1jI1vyUHgiyEp-21" value="yes" style="edgeStyle=orthogonalEdgeStyle;html=1;align=left;verticalAlign=bottom;endArrow=open;endSize=8;strokeColor=#ff0000;rounded=0;" parent="1" source="IIpFHa_1jI1vyUHgiyEp-20" edge="1">
          <mxGeometry x="-1" relative="1" as="geometry">
            <mxPoint x="460" y="720" as="targetPoint" />
            <Array as="points">
              <mxPoint x="430" y="720" />
            </Array>
          </mxGeometry>
        </mxCell>
        <mxCell id="IIpFHa_1jI1vyUHgiyEp-22" value="no" style="edgeStyle=orthogonalEdgeStyle;html=1;align=left;verticalAlign=top;endArrow=open;endSize=8;strokeColor=#ff0000;rounded=0;" parent="1" source="IIpFHa_1jI1vyUHgiyEp-20" edge="1">
          <mxGeometry x="-1" relative="1" as="geometry">
            <mxPoint x="255" y="840" as="targetPoint" />
          </mxGeometry>
        </mxCell>
        <mxCell id="IIpFHa_1jI1vyUHgiyEp-23" value="把sudog放入&lt;br&gt;sendg列队" style="rounded=1;whiteSpace=wrap;html=1;arcSize=40;fontColor=#000000;fillColor=#ffffc0;strokeColor=#ff0000;" parent="1" vertex="1">
          <mxGeometry x="195" y="940" width="120" height="40" as="geometry" />
        </mxCell>
        <mxCell id="IIpFHa_1jI1vyUHgiyEp-24" value="" style="edgeStyle=orthogonalEdgeStyle;html=1;verticalAlign=bottom;endArrow=open;endSize=8;strokeColor=#ff0000;rounded=0;" parent="1" source="IIpFHa_1jI1vyUHgiyEp-23" edge="1">
          <mxGeometry relative="1" as="geometry">
            <mxPoint x="255" y="1040" as="targetPoint" />
          </mxGeometry>
        </mxCell>
        <mxCell id="IIpFHa_1jI1vyUHgiyEp-25" value="把当前goroutine设置waiting状态等待唤醒" style="rounded=1;whiteSpace=wrap;html=1;arcSize=40;fontColor=#000000;fillColor=#ffffc0;strokeColor=#ff0000;" parent="1" vertex="1">
          <mxGeometry x="195" y="1040" width="120" height="40" as="geometry" />
        </mxCell>
        <mxCell id="IIpFHa_1jI1vyUHgiyEp-26" value="" style="edgeStyle=orthogonalEdgeStyle;html=1;verticalAlign=bottom;endArrow=open;endSize=8;strokeColor=#ff0000;rounded=0;" parent="1" source="IIpFHa_1jI1vyUHgiyEp-25" edge="1">
          <mxGeometry relative="1" as="geometry">
            <mxPoint x="255" y="1140" as="targetPoint" />
          </mxGeometry>
        </mxCell>
        <mxCell id="IIpFHa_1jI1vyUHgiyEp-29" style="edgeStyle=orthogonalEdgeStyle;rounded=0;orthogonalLoop=1;jettySize=auto;html=1;entryX=0;entryY=0.5;entryDx=0;entryDy=0;" parent="1" source="IIpFHa_1jI1vyUHgiyEp-27" target="IIpFHa_1jI1vyUHgiyEp-28" edge="1">
          <mxGeometry relative="1" as="geometry" />
        </mxCell>
        <mxCell id="IIpFHa_1jI1vyUHgiyEp-27" value="获取接收者" style="rounded=1;whiteSpace=wrap;html=1;arcSize=40;fontColor=#000000;fillColor=#ffffc0;strokeColor=#ff0000;" parent="1" vertex="1">
          <mxGeometry x="460" y="540" width="120" height="40" as="geometry" />
        </mxCell>
        <mxCell id="IIpFHa_1jI1vyUHgiyEp-31" style="edgeStyle=orthogonalEdgeStyle;rounded=0;orthogonalLoop=1;jettySize=auto;html=1;" parent="1" source="IIpFHa_1jI1vyUHgiyEp-28" target="IIpFHa_1jI1vyUHgiyEp-30" edge="1">
          <mxGeometry relative="1" as="geometry" />
        </mxCell>
        <mxCell id="IIpFHa_1jI1vyUHgiyEp-28" value="把发送数据copy到接收者指定的内存上" style="rounded=1;whiteSpace=wrap;html=1;arcSize=40;fontColor=#000000;fillColor=#ffffc0;strokeColor=#ff0000;" parent="1" vertex="1">
          <mxGeometry x="660" y="540" width="120" height="40" as="geometry" />
        </mxCell>
        <mxCell id="IIpFHa_1jI1vyUHgiyEp-33" style="edgeStyle=orthogonalEdgeStyle;rounded=0;orthogonalLoop=1;jettySize=auto;html=1;" parent="1" source="IIpFHa_1jI1vyUHgiyEp-30" target="IIpFHa_1jI1vyUHgiyEp-32" edge="1">
          <mxGeometry relative="1" as="geometry" />
        </mxCell>
        <mxCell id="IIpFHa_1jI1vyUHgiyEp-30" value="唤醒接收者协程" style="rounded=1;whiteSpace=wrap;html=1;arcSize=40;fontColor=#000000;fillColor=#ffffc0;strokeColor=#ff0000;" parent="1" vertex="1">
          <mxGeometry x="860" y="540" width="120" height="40" as="geometry" />
        </mxCell>
        <mxCell id="IIpFHa_1jI1vyUHgiyEp-32" value="" style="ellipse;html=1;shape=endState;fillColor=#000000;strokeColor=#ff0000;" parent="1" vertex="1">
          <mxGeometry x="1050" y="545" width="30" height="30" as="geometry" />
        </mxCell>
        <mxCell id="IIpFHa_1jI1vyUHgiyEp-36" style="edgeStyle=orthogonalEdgeStyle;rounded=0;orthogonalLoop=1;jettySize=auto;html=1;entryX=0;entryY=0.5;entryDx=0;entryDy=0;" parent="1" source="IIpFHa_1jI1vyUHgiyEp-34" target="IIpFHa_1jI1vyUHgiyEp-35" edge="1">
          <mxGeometry relative="1" as="geometry" />
        </mxCell>
        <mxCell id="IIpFHa_1jI1vyUHgiyEp-34" value="把发送数据copy到buf" style="rounded=1;whiteSpace=wrap;html=1;arcSize=40;fontColor=#000000;fillColor=#ffffc0;strokeColor=#ff0000;" parent="1" vertex="1">
          <mxGeometry x="460" y="700" width="120" height="40" as="geometry" />
        </mxCell>
        <mxCell id="IIpFHa_1jI1vyUHgiyEp-38" style="edgeStyle=orthogonalEdgeStyle;rounded=0;orthogonalLoop=1;jettySize=auto;html=1;entryX=0;entryY=0.5;entryDx=0;entryDy=0;" parent="1" source="IIpFHa_1jI1vyUHgiyEp-35" target="IIpFHa_1jI1vyUHgiyEp-37" edge="1">
          <mxGeometry relative="1" as="geometry" />
        </mxCell>
        <mxCell id="IIpFHa_1jI1vyUHgiyEp-35" value="sendx++&lt;br&gt;qcount++" style="rounded=1;whiteSpace=wrap;html=1;arcSize=40;fontColor=#000000;fillColor=#ffffc0;strokeColor=#ff0000;" parent="1" vertex="1">
          <mxGeometry x="660" y="700" width="120" height="40" as="geometry" />
        </mxCell>
        <mxCell id="IIpFHa_1jI1vyUHgiyEp-37" value="" style="ellipse;html=1;shape=endState;fillColor=#000000;strokeColor=#ff0000;" parent="1" vertex="1">
          <mxGeometry x="870" y="705" width="30" height="30" as="geometry" />
        </mxCell>
        <mxCell id="Y8Ub-Ih9Y8MGtYWeDZMH-1" value="" style="ellipse;html=1;shape=startState;fillColor=#000000;strokeColor=#ff0000;" parent="1" vertex="1">
          <mxGeometry x="1838" y="46" width="30" height="30" as="geometry" />
        </mxCell>
        <mxCell id="Y8Ub-Ih9Y8MGtYWeDZMH-2" value="" style="edgeStyle=orthogonalEdgeStyle;html=1;verticalAlign=bottom;endArrow=open;endSize=8;strokeColor=#ff0000;rounded=0;" parent="1" source="Y8Ub-Ih9Y8MGtYWeDZMH-1" edge="1">
          <mxGeometry relative="1" as="geometry">
            <mxPoint x="1853" y="136" as="targetPoint" />
          </mxGeometry>
        </mxCell>
        <mxCell id="Y8Ub-Ih9Y8MGtYWeDZMH-3" value="入口参数复制" style="rounded=1;whiteSpace=wrap;html=1;arcSize=40;fontColor=#000000;fillColor=#ffffc0;strokeColor=#ff0000;" parent="1" vertex="1">
          <mxGeometry x="1793" y="136" width="120" height="40" as="geometry" />
        </mxCell>
        <mxCell id="Y8Ub-Ih9Y8MGtYWeDZMH-4" value="" style="edgeStyle=orthogonalEdgeStyle;html=1;verticalAlign=bottom;endArrow=open;endSize=8;strokeColor=#ff0000;rounded=0;" parent="1" source="Y8Ub-Ih9Y8MGtYWeDZMH-3" edge="1">
          <mxGeometry relative="1" as="geometry">
            <mxPoint x="1853" y="236" as="targetPoint" />
          </mxGeometry>
        </mxCell>
        <mxCell id="Y8Ub-Ih9Y8MGtYWeDZMH-5" value="tls线程本地存储&lt;br&gt;初始化" style="rounded=1;whiteSpace=wrap;html=1;arcSize=40;fontColor=#000000;fillColor=#ffffc0;strokeColor=#ff0000;" parent="1" vertex="1">
          <mxGeometry x="1793" y="236" width="120" height="40" as="geometry" />
        </mxCell>
        <mxCell id="Y8Ub-Ih9Y8MGtYWeDZMH-6" value="" style="edgeStyle=orthogonalEdgeStyle;html=1;verticalAlign=bottom;endArrow=open;endSize=8;strokeColor=#ff0000;rounded=0;" parent="1" source="Y8Ub-Ih9Y8MGtYWeDZMH-5" edge="1">
          <mxGeometry relative="1" as="geometry">
            <mxPoint x="1853" y="336" as="targetPoint" />
          </mxGeometry>
        </mxCell>
        <mxCell id="Y8Ub-Ih9Y8MGtYWeDZMH-7" value="关联当前线程m0和g0" style="rounded=1;whiteSpace=wrap;html=1;arcSize=40;fontColor=#000000;fillColor=#ffffc0;strokeColor=#ff0000;" parent="1" vertex="1">
          <mxGeometry x="1793" y="336" width="120" height="40" as="geometry" />
        </mxCell>
        <mxCell id="Y8Ub-Ih9Y8MGtYWeDZMH-8" value="" style="edgeStyle=orthogonalEdgeStyle;html=1;verticalAlign=bottom;endArrow=open;endSize=8;strokeColor=#ff0000;rounded=0;" parent="1" source="Y8Ub-Ih9Y8MGtYWeDZMH-7" edge="1">
          <mxGeometry relative="1" as="geometry">
            <mxPoint x="1853" y="436" as="targetPoint" />
          </mxGeometry>
        </mxCell>
        <mxCell id="Y8Ub-Ih9Y8MGtYWeDZMH-9" value="check: 类型检查" style="rounded=1;whiteSpace=wrap;html=1;arcSize=40;fontColor=#000000;fillColor=#ffffc0;strokeColor=#ff0000;" parent="1" vertex="1">
          <mxGeometry x="1793" y="436" width="120" height="40" as="geometry" />
        </mxCell>
        <mxCell id="Y8Ub-Ih9Y8MGtYWeDZMH-10" value="" style="edgeStyle=orthogonalEdgeStyle;html=1;verticalAlign=bottom;endArrow=open;endSize=8;strokeColor=#ff0000;rounded=0;" parent="1" source="Y8Ub-Ih9Y8MGtYWeDZMH-9" edge="1">
          <mxGeometry relative="1" as="geometry">
            <mxPoint x="1853" y="536" as="targetPoint" />
          </mxGeometry>
        </mxCell>
        <mxCell id="Y8Ub-Ih9Y8MGtYWeDZMH-11" value="解析命令行参数" style="rounded=1;whiteSpace=wrap;html=1;arcSize=40;fontColor=#000000;fillColor=#ffffc0;strokeColor=#ff0000;" parent="1" vertex="1">
          <mxGeometry x="1793" y="536" width="120" height="40" as="geometry" />
        </mxCell>
        <mxCell id="Y8Ub-Ih9Y8MGtYWeDZMH-12" value="" style="edgeStyle=orthogonalEdgeStyle;html=1;verticalAlign=bottom;endArrow=open;endSize=8;strokeColor=#ff0000;rounded=0;" parent="1" source="Y8Ub-Ih9Y8MGtYWeDZMH-11" edge="1">
          <mxGeometry relative="1" as="geometry">
            <mxPoint x="1853" y="636" as="targetPoint" />
          </mxGeometry>
        </mxCell>
        <mxCell id="Y8Ub-Ih9Y8MGtYWeDZMH-13" value="初始化ncpu和页信息" style="rounded=1;whiteSpace=wrap;html=1;arcSize=40;fontColor=#000000;fillColor=#ffffc0;strokeColor=#ff0000;" parent="1" vertex="1">
          <mxGeometry x="1793" y="636" width="120" height="40" as="geometry" />
        </mxCell>
        <mxCell id="Y8Ub-Ih9Y8MGtYWeDZMH-14" value="" style="edgeStyle=orthogonalEdgeStyle;html=1;verticalAlign=bottom;endArrow=open;endSize=8;strokeColor=#ff0000;rounded=0;" parent="1" source="Y8Ub-Ih9Y8MGtYWeDZMH-13" edge="1">
          <mxGeometry relative="1" as="geometry">
            <mxPoint x="1853" y="736" as="targetPoint" />
          </mxGeometry>
        </mxCell>
        <mxCell id="Y8Ub-Ih9Y8MGtYWeDZMH-15" value="初始化调度器和&lt;br&gt;运行环境" style="rounded=1;whiteSpace=wrap;html=1;arcSize=40;fontColor=#000000;fillColor=#ffffc0;strokeColor=#ff0000;" parent="1" vertex="1">
          <mxGeometry x="1793" y="736" width="120" height="40" as="geometry" />
        </mxCell>
        <mxCell id="Y8Ub-Ih9Y8MGtYWeDZMH-16" value="" style="edgeStyle=orthogonalEdgeStyle;html=1;verticalAlign=bottom;endArrow=open;endSize=8;strokeColor=#ff0000;rounded=0;" parent="1" source="Y8Ub-Ih9Y8MGtYWeDZMH-15" edge="1">
          <mxGeometry relative="1" as="geometry">
            <mxPoint x="1853" y="836" as="targetPoint" />
          </mxGeometry>
        </mxCell>
        <mxCell id="Y8Ub-Ih9Y8MGtYWeDZMH-17" value="创建新的goroutine" style="rounded=1;whiteSpace=wrap;html=1;arcSize=40;fontColor=#000000;fillColor=#ffffc0;strokeColor=#ff0000;" parent="1" vertex="1">
          <mxGeometry x="1793" y="836" width="120" height="40" as="geometry" />
        </mxCell>
        <mxCell id="Y8Ub-Ih9Y8MGtYWeDZMH-18" value="" style="edgeStyle=orthogonalEdgeStyle;html=1;verticalAlign=bottom;endArrow=open;endSize=8;strokeColor=#ff0000;rounded=0;" parent="1" source="Y8Ub-Ih9Y8MGtYWeDZMH-17" edge="1">
          <mxGeometry relative="1" as="geometry">
            <mxPoint x="1853" y="936" as="targetPoint" />
          </mxGeometry>
        </mxCell>
        <mxCell id="Y8Ub-Ih9Y8MGtYWeDZMH-19" value="启动M0开始循环调度" style="rounded=1;whiteSpace=wrap;html=1;arcSize=40;fontColor=#000000;fillColor=#ffffc0;strokeColor=#ff0000;" parent="1" vertex="1">
          <mxGeometry x="1793" y="936" width="120" height="40" as="geometry" />
        </mxCell>
        <mxCell id="Y8Ub-Ih9Y8MGtYWeDZMH-20" value="" style="edgeStyle=orthogonalEdgeStyle;html=1;verticalAlign=bottom;endArrow=open;endSize=8;strokeColor=#ff0000;rounded=0;entryX=0;entryY=0.5;entryDx=0;entryDy=0;" parent="1" source="Y8Ub-Ih9Y8MGtYWeDZMH-19" target="Y8Ub-Ih9Y8MGtYWeDZMH-19" edge="1">
          <mxGeometry relative="1" as="geometry">
            <mxPoint x="1758" y="1076" as="targetPoint" />
            <Array as="points">
              <mxPoint x="1853" y="1046" />
              <mxPoint x="1758" y="1046" />
              <mxPoint x="1758" y="956" />
            </Array>
          </mxGeometry>
        </mxCell>
        <mxCell id="Y8Ub-Ih9Y8MGtYWeDZMH-21" value="栈初始化" style="rounded=1;whiteSpace=wrap;html=1;arcSize=40;fontColor=#000000;fillColor=#ffffc0;strokeColor=#ff0000;" parent="1" vertex="1">
          <mxGeometry x="2258" y="132" width="120" height="40" as="geometry" />
        </mxCell>
        <mxCell id="Y8Ub-Ih9Y8MGtYWeDZMH-22" value="" style="edgeStyle=orthogonalEdgeStyle;html=1;verticalAlign=bottom;endArrow=open;endSize=8;strokeColor=#ff0000;rounded=0;" parent="1" source="Y8Ub-Ih9Y8MGtYWeDZMH-21" edge="1">
          <mxGeometry relative="1" as="geometry">
            <mxPoint x="2318" y="232" as="targetPoint" />
          </mxGeometry>
        </mxCell>
        <mxCell id="Y8Ub-Ih9Y8MGtYWeDZMH-23" value="" style="ellipse;html=1;shape=startState;fillColor=#000000;strokeColor=#ff0000;" parent="1" vertex="1">
          <mxGeometry x="2303" y="42" width="30" height="30" as="geometry" />
        </mxCell>
        <mxCell id="Y8Ub-Ih9Y8MGtYWeDZMH-24" value="" style="edgeStyle=orthogonalEdgeStyle;html=1;verticalAlign=bottom;endArrow=open;endSize=8;strokeColor=#ff0000;rounded=0;" parent="1" source="Y8Ub-Ih9Y8MGtYWeDZMH-23" edge="1">
          <mxGeometry relative="1" as="geometry">
            <mxPoint x="2318" y="132" as="targetPoint" />
          </mxGeometry>
        </mxCell>
        <mxCell id="Y8Ub-Ih9Y8MGtYWeDZMH-25" value="内存相关初始化" style="rounded=1;whiteSpace=wrap;html=1;arcSize=40;fontColor=#000000;fillColor=#ffffc0;strokeColor=#ff0000;" parent="1" vertex="1">
          <mxGeometry x="2258" y="231" width="120" height="40" as="geometry" />
        </mxCell>
        <mxCell id="Y8Ub-Ih9Y8MGtYWeDZMH-26" value="" style="edgeStyle=orthogonalEdgeStyle;html=1;verticalAlign=bottom;endArrow=open;endSize=8;strokeColor=#ff0000;rounded=0;" parent="1" source="Y8Ub-Ih9Y8MGtYWeDZMH-25" edge="1">
          <mxGeometry relative="1" as="geometry">
            <mxPoint x="2318" y="331" as="targetPoint" />
          </mxGeometry>
        </mxCell>
        <mxCell id="Y8Ub-Ih9Y8MGtYWeDZMH-27" value="当前G系统线程&lt;br&gt;初始化" style="rounded=1;whiteSpace=wrap;html=1;arcSize=40;fontColor=#000000;fillColor=#ffffc0;strokeColor=#ff0000;" parent="1" vertex="1">
          <mxGeometry x="2258" y="331" width="120" height="40" as="geometry" />
        </mxCell>
        <mxCell id="Y8Ub-Ih9Y8MGtYWeDZMH-28" value="" style="edgeStyle=orthogonalEdgeStyle;html=1;verticalAlign=bottom;endArrow=open;endSize=8;strokeColor=#ff0000;rounded=0;" parent="1" source="Y8Ub-Ih9Y8MGtYWeDZMH-27" edge="1">
          <mxGeometry relative="1" as="geometry">
            <mxPoint x="2318" y="431" as="targetPoint" />
          </mxGeometry>
        </mxCell>
        <mxCell id="Y8Ub-Ih9Y8MGtYWeDZMH-29" value="内存回收GC&lt;br&gt;初始化" style="rounded=1;whiteSpace=wrap;html=1;arcSize=40;fontColor=#000000;fillColor=#ffffc0;strokeColor=#ff0000;" parent="1" vertex="1">
          <mxGeometry x="2258" y="429" width="120" height="40" as="geometry" />
        </mxCell>
        <mxCell id="Y8Ub-Ih9Y8MGtYWeDZMH-30" value="" style="edgeStyle=orthogonalEdgeStyle;html=1;verticalAlign=bottom;endArrow=open;endSize=8;strokeColor=#ff0000;rounded=0;" parent="1" source="Y8Ub-Ih9Y8MGtYWeDZMH-29" edge="1">
          <mxGeometry relative="1" as="geometry">
            <mxPoint x="2318" y="529" as="targetPoint" />
          </mxGeometry>
        </mxCell>
        <mxCell id="Y8Ub-Ih9Y8MGtYWeDZMH-31" value="初始化procs个P" style="rounded=1;whiteSpace=wrap;html=1;arcSize=40;fontColor=#000000;fillColor=#ffffc0;strokeColor=#ff0000;" parent="1" vertex="1">
          <mxGeometry x="2258" y="527" width="120" height="40" as="geometry" />
        </mxCell>
        <mxCell id="Y8Ub-Ih9Y8MGtYWeDZMH-32" value="" style="edgeStyle=orthogonalEdgeStyle;html=1;verticalAlign=bottom;endArrow=open;endSize=8;strokeColor=#ff0000;rounded=0;" parent="1" source="Y8Ub-Ih9Y8MGtYWeDZMH-31" edge="1">
          <mxGeometry relative="1" as="geometry">
            <mxPoint x="2318" y="627" as="targetPoint" />
          </mxGeometry>
        </mxCell>
        <mxCell id="Y8Ub-Ih9Y8MGtYWeDZMH-33" value="" style="ellipse;html=1;shape=endState;fillColor=#000000;strokeColor=#ff0000;" parent="1" vertex="1">
          <mxGeometry x="2303" y="627" width="30" height="30" as="geometry" />
        </mxCell>
        <mxCell id="Y8Ub-Ih9Y8MGtYWeDZMH-35" value="schedinit" style="text;html=1;strokeColor=none;fillColor=none;align=center;verticalAlign=middle;whiteSpace=wrap;rounded=0;" parent="1" vertex="1">
          <mxGeometry x="2198" y="7" width="60" height="30" as="geometry" />
        </mxCell>
        <mxCell id="Y8Ub-Ih9Y8MGtYWeDZMH-36" value="" style="endArrow=block;dashed=1;endFill=0;endSize=12;html=1;rounded=0;exitX=1;exitY=0.5;exitDx=0;exitDy=0;entryX=0;entryY=0.5;entryDx=0;entryDy=0;edgeStyle=orthogonalEdgeStyle;" parent="1" source="Y8Ub-Ih9Y8MGtYWeDZMH-15" target="Y8Ub-Ih9Y8MGtYWeDZMH-34" edge="1">
          <mxGeometry width="160" relative="1" as="geometry">
            <mxPoint x="1928" y="756" as="sourcePoint" />
            <mxPoint x="2088" y="756" as="targetPoint" />
          </mxGeometry>
        </mxCell>
        <mxCell id="Y8Ub-Ih9Y8MGtYWeDZMH-37" value="" style="ellipse;html=1;shape=startState;fillColor=#000000;strokeColor=#ff0000;" parent="1" vertex="1">
          <mxGeometry x="2303" y="730" width="30" height="30" as="geometry" />
        </mxCell>
        <mxCell id="Y8Ub-Ih9Y8MGtYWeDZMH-38" value="" style="edgeStyle=orthogonalEdgeStyle;html=1;verticalAlign=bottom;endArrow=open;endSize=8;strokeColor=#ff0000;rounded=0;" parent="1" source="Y8Ub-Ih9Y8MGtYWeDZMH-37" edge="1">
          <mxGeometry relative="1" as="geometry">
            <mxPoint x="2318" y="820" as="targetPoint" />
          </mxGeometry>
        </mxCell>
        <mxCell id="Y8Ub-Ih9Y8MGtYWeDZMH-39" value="创建新的goroutine，入口地址runtime.main" style="rounded=1;whiteSpace=wrap;html=1;arcSize=40;fontColor=#000000;fillColor=#ffffc0;strokeColor=#ff0000;" parent="1" vertex="1">
          <mxGeometry x="2228" y="820" width="180" height="40" as="geometry" />
        </mxCell>
        <mxCell id="Y8Ub-Ih9Y8MGtYWeDZMH-40" value="" style="edgeStyle=orthogonalEdgeStyle;html=1;verticalAlign=bottom;endArrow=open;endSize=8;strokeColor=#ff0000;rounded=0;" parent="1" source="Y8Ub-Ih9Y8MGtYWeDZMH-39" edge="1">
          <mxGeometry relative="1" as="geometry">
            <mxPoint x="2318" y="920" as="targetPoint" />
          </mxGeometry>
        </mxCell>
        <mxCell id="Y8Ub-Ih9Y8MGtYWeDZMH-43" value="放到P的列队中&lt;br&gt;等待调度" style="rounded=1;whiteSpace=wrap;html=1;arcSize=40;fontColor=#000000;fillColor=#ffffc0;strokeColor=#ff0000;" parent="1" vertex="1">
          <mxGeometry x="2258" y="920" width="120" height="40" as="geometry" />
        </mxCell>
        <mxCell id="Y8Ub-Ih9Y8MGtYWeDZMH-44" value="" style="edgeStyle=orthogonalEdgeStyle;html=1;verticalAlign=bottom;endArrow=open;endSize=8;strokeColor=#ff0000;rounded=0;" parent="1" source="Y8Ub-Ih9Y8MGtYWeDZMH-43" edge="1">
          <mxGeometry relative="1" as="geometry">
            <mxPoint x="2318" y="1020" as="targetPoint" />
          </mxGeometry>
        </mxCell>
        <mxCell id="Iu3-bTu1Jm2DTlRQBmP7-2" value="" style="ellipse;html=1;shape=endState;fillColor=#000000;strokeColor=#ff0000;" parent="1" vertex="1">
          <mxGeometry x="2303" y="1020" width="30" height="30" as="geometry" />
        </mxCell>
        <mxCell id="Iu3-bTu1Jm2DTlRQBmP7-3" value="newproc" style="text;html=1;strokeColor=none;fillColor=none;align=center;verticalAlign=middle;whiteSpace=wrap;rounded=0;" parent="1" vertex="1">
          <mxGeometry x="2198" y="700" width="60" height="30" as="geometry" />
        </mxCell>
        <mxCell id="Iu3-bTu1Jm2DTlRQBmP7-4" value="" style="endArrow=block;dashed=1;endFill=0;endSize=12;html=1;rounded=0;exitX=1;exitY=0.5;exitDx=0;exitDy=0;entryX=0;entryY=0.25;entryDx=0;entryDy=0;edgeStyle=orthogonalEdgeStyle;" parent="1" source="Y8Ub-Ih9Y8MGtYWeDZMH-17" target="Iu3-bTu1Jm2DTlRQBmP7-1" edge="1">
          <mxGeometry width="160" relative="1" as="geometry">
            <mxPoint x="1918" y="856" as="sourcePoint" />
            <mxPoint x="2078" y="856" as="targetPoint" />
          </mxGeometry>
        </mxCell>
        <mxCell id="Iu3-bTu1Jm2DTlRQBmP7-5" value="" style="ellipse;html=1;shape=startState;fillColor=#000000;strokeColor=#ff0000;" parent="1" vertex="1">
          <mxGeometry x="2303" y="1093" width="30" height="30" as="geometry" />
        </mxCell>
        <mxCell id="Iu3-bTu1Jm2DTlRQBmP7-6" value="" style="edgeStyle=orthogonalEdgeStyle;html=1;verticalAlign=bottom;endArrow=open;endSize=8;strokeColor=#ff0000;rounded=0;" parent="1" source="Iu3-bTu1Jm2DTlRQBmP7-5" edge="1">
          <mxGeometry relative="1" as="geometry">
            <mxPoint x="2318" y="1183" as="targetPoint" />
          </mxGeometry>
        </mxCell>
        <mxCell id="Iu3-bTu1Jm2DTlRQBmP7-7" value="schedule" style="rounded=1;whiteSpace=wrap;html=1;arcSize=40;fontColor=#000000;fillColor=#ffffc0;strokeColor=#ff0000;" parent="1" vertex="1">
          <mxGeometry x="2258" y="1183" width="120" height="40" as="geometry" />
        </mxCell>
        <mxCell id="Iu3-bTu1Jm2DTlRQBmP7-8" value="" style="edgeStyle=orthogonalEdgeStyle;html=1;verticalAlign=bottom;endArrow=open;endSize=8;strokeColor=#ff0000;rounded=0;entryX=0;entryY=0.5;entryDx=0;entryDy=0;" parent="1" source="Iu3-bTu1Jm2DTlRQBmP7-7" target="Iu3-bTu1Jm2DTlRQBmP7-7" edge="1">
          <mxGeometry relative="1" as="geometry">
            <mxPoint x="2198" y="1163" as="targetPoint" />
            <Array as="points">
              <mxPoint x="2318" y="1293" />
              <mxPoint x="2218" y="1293" />
              <mxPoint x="2218" y="1203" />
            </Array>
          </mxGeometry>
        </mxCell>
        <mxCell id="Iu3-bTu1Jm2DTlRQBmP7-11" value="" style="endArrow=block;dashed=1;endFill=0;endSize=12;html=1;rounded=0;exitX=1;exitY=0.5;exitDx=0;exitDy=0;entryX=0;entryY=0.5;entryDx=0;entryDy=0;edgeStyle=orthogonalEdgeStyle;" parent="1" source="Y8Ub-Ih9Y8MGtYWeDZMH-19" target="Iu3-bTu1Jm2DTlRQBmP7-9" edge="1">
          <mxGeometry width="160" relative="1" as="geometry">
            <mxPoint x="1918" y="956" as="sourcePoint" />
            <mxPoint x="2078" y="956" as="targetPoint" />
          </mxGeometry>
        </mxCell>
        <mxCell id="Iu3-bTu1Jm2DTlRQBmP7-12" value="" style="ellipse;html=1;shape=startState;fillColor=#000000;strokeColor=#ff0000;" parent="1" vertex="1">
          <mxGeometry x="2698" y="730" width="30" height="30" as="geometry" />
        </mxCell>
        <mxCell id="Iu3-bTu1Jm2DTlRQBmP7-13" value="" style="edgeStyle=orthogonalEdgeStyle;html=1;verticalAlign=bottom;endArrow=open;endSize=8;strokeColor=#ff0000;rounded=0;" parent="1" source="Iu3-bTu1Jm2DTlRQBmP7-12" edge="1">
          <mxGeometry relative="1" as="geometry">
            <mxPoint x="2713" y="820" as="targetPoint" />
          </mxGeometry>
        </mxCell>
        <mxCell id="Iu3-bTu1Jm2DTlRQBmP7-14" value="单独开启一个线程执行&lt;br&gt;监视sysmon，不受调度影响" style="rounded=1;whiteSpace=wrap;html=1;arcSize=40;fontColor=#000000;fillColor=#ffffc0;strokeColor=#ff0000;" parent="1" vertex="1">
          <mxGeometry x="2615.5" y="820" width="195" height="40" as="geometry" />
        </mxCell>
        <mxCell id="Iu3-bTu1Jm2DTlRQBmP7-15" value="" style="edgeStyle=orthogonalEdgeStyle;html=1;verticalAlign=bottom;endArrow=open;endSize=8;strokeColor=#ff0000;rounded=0;" parent="1" source="Iu3-bTu1Jm2DTlRQBmP7-14" edge="1">
          <mxGeometry relative="1" as="geometry">
            <mxPoint x="2713" y="920" as="targetPoint" />
          </mxGeometry>
        </mxCell>
        <mxCell id="Iu3-bTu1Jm2DTlRQBmP7-18" value="执行所有runtime包内的init函数" style="rounded=1;whiteSpace=wrap;html=1;arcSize=40;fontColor=#000000;fillColor=#ffffc0;strokeColor=#ff0000;" parent="1" vertex="1">
          <mxGeometry x="2653" y="920" width="120" height="40" as="geometry" />
        </mxCell>
        <mxCell id="Iu3-bTu1Jm2DTlRQBmP7-19" value="" style="edgeStyle=orthogonalEdgeStyle;html=1;verticalAlign=bottom;endArrow=open;endSize=8;strokeColor=#ff0000;rounded=0;" parent="1" source="Iu3-bTu1Jm2DTlRQBmP7-18" edge="1">
          <mxGeometry relative="1" as="geometry">
            <mxPoint x="2713" y="1020" as="targetPoint" />
          </mxGeometry>
        </mxCell>
        <mxCell id="Iu3-bTu1Jm2DTlRQBmP7-20" value="启动GC" style="rounded=1;whiteSpace=wrap;html=1;arcSize=40;fontColor=#000000;fillColor=#ffffc0;strokeColor=#ff0000;" parent="1" vertex="1">
          <mxGeometry x="2653" y="1020" width="120" height="40" as="geometry" />
        </mxCell>
        <mxCell id="Iu3-bTu1Jm2DTlRQBmP7-21" value="" style="edgeStyle=orthogonalEdgeStyle;html=1;verticalAlign=bottom;endArrow=open;endSize=8;strokeColor=#ff0000;rounded=0;" parent="1" source="Iu3-bTu1Jm2DTlRQBmP7-20" edge="1">
          <mxGeometry relative="1" as="geometry">
            <mxPoint x="2713" y="1120" as="targetPoint" />
          </mxGeometry>
        </mxCell>
        <mxCell id="Iu3-bTu1Jm2DTlRQBmP7-22" value="执行所有用户包的&lt;br&gt;init函数" style="rounded=1;whiteSpace=wrap;html=1;arcSize=40;fontColor=#000000;fillColor=#ffffc0;strokeColor=#ff0000;" parent="1" vertex="1">
          <mxGeometry x="2653" y="1120" width="120" height="40" as="geometry" />
        </mxCell>
        <mxCell id="Iu3-bTu1Jm2DTlRQBmP7-23" value="" style="edgeStyle=orthogonalEdgeStyle;html=1;verticalAlign=bottom;endArrow=open;endSize=8;strokeColor=#ff0000;rounded=0;" parent="1" source="Iu3-bTu1Jm2DTlRQBmP7-22" edge="1">
          <mxGeometry relative="1" as="geometry">
            <mxPoint x="2713" y="1220" as="targetPoint" />
          </mxGeometry>
        </mxCell>
        <mxCell id="Iu3-bTu1Jm2DTlRQBmP7-24" value="执行main.main" style="rounded=1;whiteSpace=wrap;html=1;arcSize=40;fontColor=#000000;fillColor=#ffffc0;strokeColor=#ff0000;" parent="1" vertex="1">
          <mxGeometry x="2653" y="1220" width="120" height="40" as="geometry" />
        </mxCell>
        <mxCell id="Iu3-bTu1Jm2DTlRQBmP7-25" value="" style="edgeStyle=orthogonalEdgeStyle;html=1;verticalAlign=bottom;endArrow=open;endSize=8;strokeColor=#ff0000;rounded=0;" parent="1" source="Iu3-bTu1Jm2DTlRQBmP7-24" edge="1">
          <mxGeometry relative="1" as="geometry">
            <mxPoint x="2713" y="1320" as="targetPoint" />
          </mxGeometry>
        </mxCell>
        <mxCell id="Iu3-bTu1Jm2DTlRQBmP7-27" value="runtime.main" style="text;html=1;strokeColor=none;fillColor=none;align=center;verticalAlign=middle;whiteSpace=wrap;rounded=0;" parent="1" vertex="1">
          <mxGeometry x="2543" y="700" width="95" height="30" as="geometry" />
        </mxCell>
        <mxCell id="Iu3-bTu1Jm2DTlRQBmP7-28" value="" style="endArrow=block;dashed=1;endFill=0;endSize=12;html=1;rounded=0;exitX=1;exitY=0.5;exitDx=0;exitDy=0;entryX=0;entryY=0.5;entryDx=0;entryDy=0;edgeStyle=orthogonalEdgeStyle;" parent="1" source="Iu3-bTu1Jm2DTlRQBmP7-7" target="Iu3-bTu1Jm2DTlRQBmP7-26" edge="1">
          <mxGeometry width="160" relative="1" as="geometry">
            <mxPoint x="2398" y="1266" as="sourcePoint" />
            <mxPoint x="2558" y="1266" as="targetPoint" />
          </mxGeometry>
        </mxCell>
        <mxCell id="Iu3-bTu1Jm2DTlRQBmP7-31" value="runtime.rt0_go" style="text;html=1;strokeColor=none;fillColor=none;align=center;verticalAlign=middle;whiteSpace=wrap;rounded=0;" parent="1" vertex="1">
          <mxGeometry x="1713" y="7" width="105" height="30" as="geometry" />
        </mxCell>
        <mxCell id="Iu3-bTu1Jm2DTlRQBmP7-32" value="go程序启动流程" style="text;html=1;strokeColor=none;fillColor=none;align=center;verticalAlign=middle;whiteSpace=wrap;rounded=0;" parent="1" vertex="1">
          <mxGeometry x="1883" y="7" width="110" height="30" as="geometry" />
        </mxCell>
        <mxCell id="Iu3-bTu1Jm2DTlRQBmP7-33" value="mstart" style="text;html=1;strokeColor=none;fillColor=none;align=center;verticalAlign=middle;whiteSpace=wrap;rounded=0;" parent="1" vertex="1">
          <mxGeometry x="2198" y="1083" width="60" height="30" as="geometry" />
        </mxCell>
      </root>
    </mxGraphModel>
  </diagram>
  <diagram id="4HPd5-pQT5bv2y7T06en" name="内置包">
    <mxGraphModel dx="1186" dy="1691" grid="1" gridSize="10" guides="1" tooltips="1" connect="1" arrows="1" fold="1" page="1" pageScale="1" pageWidth="850" pageHeight="1100" math="0" shadow="0">
      <root>
        <mxCell id="ruA95NtTYl-0B72FDkmp-0" />
        <mxCell id="ruA95NtTYl-0B72FDkmp-1" parent="ruA95NtTYl-0B72FDkmp-0" />
        <mxCell id="ruA95NtTYl-0B72FDkmp-2" value="ServeMux" style="swimlane;fontStyle=1;align=center;verticalAlign=top;childLayout=stackLayout;horizontal=1;startSize=26;horizontalStack=0;resizeParent=1;resizeParentMax=0;resizeLast=0;collapsible=1;marginBottom=0;" vertex="1" parent="ruA95NtTYl-0B72FDkmp-1">
          <mxGeometry x="440" width="160" height="134" as="geometry" />
        </mxCell>
        <mxCell id="ruA95NtTYl-0B72FDkmp-3" value="mu    sync.RWMutex&#xa;    m     map[string]muxEntry&#xa;    es    []muxEntry &#xa;    hosts bool " style="text;strokeColor=none;fillColor=none;align=left;verticalAlign=top;spacingLeft=4;spacingRight=4;overflow=hidden;rotatable=0;points=[[0,0.5],[1,0.5]];portConstraint=eastwest;" vertex="1" parent="ruA95NtTYl-0B72FDkmp-2">
          <mxGeometry y="26" width="160" height="74" as="geometry" />
        </mxCell>
        <mxCell id="ruA95NtTYl-0B72FDkmp-4" value="" style="line;strokeWidth=1;fillColor=none;align=left;verticalAlign=middle;spacingTop=-1;spacingLeft=3;spacingRight=3;rotatable=0;labelPosition=right;points=[];portConstraint=eastwest;" vertex="1" parent="ruA95NtTYl-0B72FDkmp-2">
          <mxGeometry y="100" width="160" height="8" as="geometry" />
        </mxCell>
        <mxCell id="ruA95NtTYl-0B72FDkmp-5" value="+ method(type): type" style="text;strokeColor=none;fillColor=none;align=left;verticalAlign=top;spacingLeft=4;spacingRight=4;overflow=hidden;rotatable=0;points=[[0,0.5],[1,0.5]];portConstraint=eastwest;" vertex="1" parent="ruA95NtTYl-0B72FDkmp-2">
          <mxGeometry y="108" width="160" height="26" as="geometry" />
        </mxCell>
        <mxCell id="ruA95NtTYl-0B72FDkmp-6" value="muxEntry" style="swimlane;fontStyle=1;align=center;verticalAlign=top;childLayout=stackLayout;horizontal=1;startSize=26;horizontalStack=0;resizeParent=1;resizeParentMax=0;resizeLast=0;collapsible=1;marginBottom=0;" vertex="1" parent="ruA95NtTYl-0B72FDkmp-1">
          <mxGeometry x="280" y="206" width="160" height="104" as="geometry" />
        </mxCell>
        <mxCell id="ruA95NtTYl-0B72FDkmp-7" value="h       Handler&#xa;    pattern string" style="text;strokeColor=none;fillColor=none;align=left;verticalAlign=top;spacingLeft=4;spacingRight=4;overflow=hidden;rotatable=0;points=[[0,0.5],[1,0.5]];portConstraint=eastwest;" vertex="1" parent="ruA95NtTYl-0B72FDkmp-6">
          <mxGeometry y="26" width="160" height="44" as="geometry" />
        </mxCell>
        <mxCell id="ruA95NtTYl-0B72FDkmp-8" value="" style="line;strokeWidth=1;fillColor=none;align=left;verticalAlign=middle;spacingTop=-1;spacingLeft=3;spacingRight=3;rotatable=0;labelPosition=right;points=[];portConstraint=eastwest;" vertex="1" parent="ruA95NtTYl-0B72FDkmp-6">
          <mxGeometry y="70" width="160" height="8" as="geometry" />
        </mxCell>
        <mxCell id="ruA95NtTYl-0B72FDkmp-9" value="+ method(type): type" style="text;strokeColor=none;fillColor=none;align=left;verticalAlign=top;spacingLeft=4;spacingRight=4;overflow=hidden;rotatable=0;points=[[0,0.5],[1,0.5]];portConstraint=eastwest;" vertex="1" parent="ruA95NtTYl-0B72FDkmp-6">
          <mxGeometry y="78" width="160" height="26" as="geometry" />
        </mxCell>
        <mxCell id="ruA95NtTYl-0B72FDkmp-10" value="&lt;p style=&quot;margin: 0px ; margin-top: 4px ; text-align: center&quot;&gt;&lt;i&gt;&amp;lt;&amp;lt;Interface&amp;gt;&amp;gt;&lt;/i&gt;&lt;br&gt;&lt;b&gt;Interface&lt;/b&gt;&lt;/p&gt;&lt;hr size=&quot;1&quot;&gt;&lt;p style=&quot;margin: 0px ; margin-left: 4px&quot;&gt;ServeHTTP(ResponseWriter, *Request)&lt;br&gt;&lt;/p&gt;&lt;hr size=&quot;1&quot;&gt;&lt;p style=&quot;margin: 0px ; margin-left: 4px&quot;&gt;&lt;br&gt;&lt;/p&gt;" style="verticalAlign=top;align=left;overflow=fill;fontSize=12;fontFamily=Helvetica;html=1;" vertex="1" parent="ruA95NtTYl-0B72FDkmp-1">
          <mxGeometry x="500" y="310" width="230" height="90" as="geometry" />
        </mxCell>
        <mxCell id="ruA95NtTYl-0B72FDkmp-11" value="" style="endArrow=diamondThin;endFill=0;endSize=24;html=1;rounded=0;exitX=0;exitY=0.5;exitDx=0;exitDy=0;entryX=0.5;entryY=0;entryDx=0;entryDy=0;" edge="1" parent="ruA95NtTYl-0B72FDkmp-1" source="ruA95NtTYl-0B72FDkmp-3" target="ruA95NtTYl-0B72FDkmp-6">
          <mxGeometry width="160" relative="1" as="geometry">
            <mxPoint x="160" y="220" as="sourcePoint" />
            <mxPoint x="320" y="220" as="targetPoint" />
          </mxGeometry>
        </mxCell>
        <mxCell id="ruA95NtTYl-0B72FDkmp-12" value="" style="endArrow=diamondThin;endFill=0;endSize=24;html=1;rounded=0;exitX=1;exitY=0.5;exitDx=0;exitDy=0;entryX=0;entryY=0.5;entryDx=0;entryDy=0;" edge="1" parent="ruA95NtTYl-0B72FDkmp-1" source="ruA95NtTYl-0B72FDkmp-7" target="ruA95NtTYl-0B72FDkmp-10">
          <mxGeometry width="160" relative="1" as="geometry">
            <mxPoint x="400" y="380" as="sourcePoint" />
            <mxPoint x="560" y="380" as="targetPoint" />
          </mxGeometry>
        </mxCell>
        <mxCell id="ruA95NtTYl-0B72FDkmp-13" value="Server" style="swimlane;fontStyle=1;align=center;verticalAlign=top;childLayout=stackLayout;horizontal=1;startSize=26;horizontalStack=0;resizeParent=1;resizeParentMax=0;resizeLast=0;collapsible=1;marginBottom=0;" vertex="1" parent="ruA95NtTYl-0B72FDkmp-1">
          <mxGeometry x="760" y="-120" width="390" height="384" as="geometry" />
        </mxCell>
        <mxCell id="ruA95NtTYl-0B72FDkmp-14" value="Addr string&#xa;Handler Handler &#xa;TLSConfig *tls.Config&#xa;ReadTimeout time.Duration&#xa;ReadHeaderTimeout time.Duration&#xa;WriteTimeout time.Duration&#xa;IdleTimeout time.Duration&#xa;MaxHeaderBytes int&#xa;TLSNextProto map[string]func(*Server, *tls.Conn, Handler)&#xa;ConnState func(net.Conn, ConnState)&#xa;ErrorLog *log.Logger&#xa;BaseContext func(net.Listener) context.Context&#xa;ConnContext func(ctx context.Context, c net.Conn) context.Context&#xa;disableKeepAlives int32     &#xa;inShutdown        int32     &#xa;nextProtoOnce     sync.Once &#xa;nextProtoErr      error     &#xa;mu         sync.Mutex&#xa;listeners  map[*net.Listener]struct{}&#xa;activeConn map[*conn]struct{}&#xa;doneChan   chan struct{}&#xa;onShutdown []func()" style="text;strokeColor=none;fillColor=none;align=left;verticalAlign=top;spacingLeft=4;spacingRight=4;overflow=hidden;rotatable=0;points=[[0,0.5],[1,0.5]];portConstraint=eastwest;" vertex="1" parent="ruA95NtTYl-0B72FDkmp-13">
          <mxGeometry y="26" width="390" height="324" as="geometry" />
        </mxCell>
        <mxCell id="ruA95NtTYl-0B72FDkmp-15" value="" style="line;strokeWidth=1;fillColor=none;align=left;verticalAlign=middle;spacingTop=-1;spacingLeft=3;spacingRight=3;rotatable=0;labelPosition=right;points=[];portConstraint=eastwest;" vertex="1" parent="ruA95NtTYl-0B72FDkmp-13">
          <mxGeometry y="350" width="390" height="8" as="geometry" />
        </mxCell>
        <mxCell id="ruA95NtTYl-0B72FDkmp-16" value="+ method(type): type" style="text;strokeColor=none;fillColor=none;align=left;verticalAlign=top;spacingLeft=4;spacingRight=4;overflow=hidden;rotatable=0;points=[[0,0.5],[1,0.5]];portConstraint=eastwest;" vertex="1" parent="ruA95NtTYl-0B72FDkmp-13">
          <mxGeometry y="358" width="390" height="26" as="geometry" />
        </mxCell>
        <mxCell id="ruA95NtTYl-0B72FDkmp-17" value="" style="endArrow=diamondThin;endFill=0;endSize=24;html=1;rounded=0;entryX=0.5;entryY=0;entryDx=0;entryDy=0;exitX=0;exitY=0.5;exitDx=0;exitDy=0;" edge="1" parent="ruA95NtTYl-0B72FDkmp-1" source="ruA95NtTYl-0B72FDkmp-14" target="ruA95NtTYl-0B72FDkmp-10">
          <mxGeometry width="160" relative="1" as="geometry">
            <mxPoint x="830" y="260" as="sourcePoint" />
            <mxPoint x="990" y="260" as="targetPoint" />
          </mxGeometry>
        </mxCell>
        <mxCell id="ruA95NtTYl-0B72FDkmp-37" style="edgeStyle=orthogonalEdgeStyle;rounded=0;orthogonalLoop=1;jettySize=auto;html=1;entryX=0.5;entryY=0;entryDx=0;entryDy=0;" edge="1" parent="ruA95NtTYl-0B72FDkmp-1" source="ruA95NtTYl-0B72FDkmp-19" target="ruA95NtTYl-0B72FDkmp-21">
          <mxGeometry relative="1" as="geometry" />
        </mxCell>
        <mxCell id="ruA95NtTYl-0B72FDkmp-19" value="ListenAndServe" style="html=1;" vertex="1" parent="ruA95NtTYl-0B72FDkmp-1">
          <mxGeometry x="1540" y="-1" width="120" height="40" as="geometry" />
        </mxCell>
        <mxCell id="ruA95NtTYl-0B72FDkmp-38" style="edgeStyle=orthogonalEdgeStyle;rounded=0;orthogonalLoop=1;jettySize=auto;html=1;entryX=0.5;entryY=0;entryDx=0;entryDy=0;" edge="1" parent="ruA95NtTYl-0B72FDkmp-1" source="ruA95NtTYl-0B72FDkmp-21" target="ruA95NtTYl-0B72FDkmp-22">
          <mxGeometry relative="1" as="geometry">
            <Array as="points">
              <mxPoint x="2010" y="176" />
            </Array>
          </mxGeometry>
        </mxCell>
        <mxCell id="ruA95NtTYl-0B72FDkmp-21" value="net.Listen" style="html=1;" vertex="1" parent="ruA95NtTYl-0B72FDkmp-1">
          <mxGeometry x="1540" y="105" width="120" height="40" as="geometry" />
        </mxCell>
        <mxCell id="ruA95NtTYl-0B72FDkmp-33" style="edgeStyle=orthogonalEdgeStyle;rounded=0;orthogonalLoop=1;jettySize=auto;html=1;entryX=0.5;entryY=0;entryDx=0;entryDy=0;" edge="1" parent="ruA95NtTYl-0B72FDkmp-1" source="ruA95NtTYl-0B72FDkmp-22" target="ruA95NtTYl-0B72FDkmp-28">
          <mxGeometry relative="1" as="geometry">
            <Array as="points">
              <mxPoint x="2010" y="320" />
              <mxPoint x="1600" y="320" />
            </Array>
          </mxGeometry>
        </mxCell>
        <mxCell id="ruA95NtTYl-0B72FDkmp-22" value="conn.Serve" style="html=1;" vertex="1" parent="ruA95NtTYl-0B72FDkmp-1">
          <mxGeometry x="1950" y="220" width="120" height="40" as="geometry" />
        </mxCell>
        <mxCell id="ruA95NtTYl-0B72FDkmp-23" value="conn" style="swimlane;fontStyle=1;align=center;verticalAlign=top;childLayout=stackLayout;horizontal=1;startSize=26;horizontalStack=0;resizeParent=1;resizeParentMax=0;resizeLast=0;collapsible=1;marginBottom=0;" vertex="1" parent="ruA95NtTYl-0B72FDkmp-1">
          <mxGeometry x="440" y="-480" width="220" height="274" as="geometry" />
        </mxCell>
        <mxCell id="ruA95NtTYl-0B72FDkmp-24" value="server *Server&#xa;cancelCtx context.CancelFunc&#xa;rwc net.Conn&#xa;remoteAddr string&#xa;tlsState *tls.ConnectionState&#xa;werr error&#xa;r *connReader&#xa;bufr *bufio.Reader&#xa;bufw *bufio.Writer&#xa;lastMethod string&#xa;curReq atomic.Value &#xa;curState struct{ atomic uint64 } &#xa;mu sync.Mutex&#xa;hijackedv bool" style="text;strokeColor=none;fillColor=none;align=left;verticalAlign=top;spacingLeft=4;spacingRight=4;overflow=hidden;rotatable=0;points=[[0,0.5],[1,0.5]];portConstraint=eastwest;" vertex="1" parent="ruA95NtTYl-0B72FDkmp-23">
          <mxGeometry y="26" width="220" height="214" as="geometry" />
        </mxCell>
        <mxCell id="ruA95NtTYl-0B72FDkmp-25" value="" style="line;strokeWidth=1;fillColor=none;align=left;verticalAlign=middle;spacingTop=-1;spacingLeft=3;spacingRight=3;rotatable=0;labelPosition=right;points=[];portConstraint=eastwest;" vertex="1" parent="ruA95NtTYl-0B72FDkmp-23">
          <mxGeometry y="240" width="220" height="8" as="geometry" />
        </mxCell>
        <mxCell id="ruA95NtTYl-0B72FDkmp-26" value="+ method(type): type" style="text;strokeColor=none;fillColor=none;align=left;verticalAlign=top;spacingLeft=4;spacingRight=4;overflow=hidden;rotatable=0;points=[[0,0.5],[1,0.5]];portConstraint=eastwest;" vertex="1" parent="ruA95NtTYl-0B72FDkmp-23">
          <mxGeometry y="248" width="220" height="26" as="geometry" />
        </mxCell>
        <mxCell id="ruA95NtTYl-0B72FDkmp-27" value="" style="endArrow=diamondThin;endFill=0;endSize=24;html=1;rounded=0;exitX=1;exitY=0.5;exitDx=0;exitDy=0;entryX=0.5;entryY=0;entryDx=0;entryDy=0;" edge="1" parent="ruA95NtTYl-0B72FDkmp-1" source="ruA95NtTYl-0B72FDkmp-24" target="ruA95NtTYl-0B72FDkmp-13">
          <mxGeometry width="160" relative="1" as="geometry">
            <mxPoint x="850" y="-220" as="sourcePoint" />
            <mxPoint x="1010" y="-220" as="targetPoint" />
          </mxGeometry>
        </mxCell>
        <mxCell id="ruA95NtTYl-0B72FDkmp-31" style="edgeStyle=orthogonalEdgeStyle;rounded=0;orthogonalLoop=1;jettySize=auto;html=1;entryX=0.5;entryY=0;entryDx=0;entryDy=0;exitX=0.5;exitY=1;exitDx=0;exitDy=0;" edge="1" parent="ruA95NtTYl-0B72FDkmp-1" source="ruA95NtTYl-0B72FDkmp-28" target="ruA95NtTYl-0B72FDkmp-29">
          <mxGeometry relative="1" as="geometry" />
        </mxCell>
        <mxCell id="ruA95NtTYl-0B72FDkmp-28" value="serverHandler.ServeHttp" style="html=1;" vertex="1" parent="ruA95NtTYl-0B72FDkmp-1">
          <mxGeometry x="1520" y="350" width="160" height="40" as="geometry" />
        </mxCell>
        <mxCell id="ruA95NtTYl-0B72FDkmp-34" style="edgeStyle=orthogonalEdgeStyle;rounded=0;orthogonalLoop=1;jettySize=auto;html=1;" edge="1" parent="ruA95NtTYl-0B72FDkmp-1" source="ruA95NtTYl-0B72FDkmp-29">
          <mxGeometry relative="1" as="geometry">
            <mxPoint x="2010" y="620" as="targetPoint" />
          </mxGeometry>
        </mxCell>
        <mxCell id="ruA95NtTYl-0B72FDkmp-29" value="&lt;span&gt;ServeMux.&lt;/span&gt;Handler" style="html=1;" vertex="1" parent="ruA95NtTYl-0B72FDkmp-1">
          <mxGeometry x="1950" y="480" width="120" height="40" as="geometry" />
        </mxCell>
        <mxCell id="ruA95NtTYl-0B72FDkmp-32" value="默认DefaultServeMux(ServeMux)" style="text;html=1;strokeColor=none;fillColor=none;align=center;verticalAlign=middle;whiteSpace=wrap;rounded=0;" vertex="1" parent="ruA95NtTYl-0B72FDkmp-1">
          <mxGeometry x="1760" y="400" width="160" height="30" as="geometry" />
        </mxCell>
        <mxCell id="ruA95NtTYl-0B72FDkmp-36" value="调用路由对于的&lt;br&gt;处理函数" style="html=1;" vertex="1" parent="ruA95NtTYl-0B72FDkmp-1">
          <mxGeometry x="1950" y="620" width="120" height="40" as="geometry" />
        </mxCell>
      </root>
    </mxGraphModel>
  </diagram>
</mxfile>
